<svg width="128" height="128" viewBox="0 0 128 128" fill="none" xmlns="http://www.w3.org/2000/svg">
<g filter="url(#filter0_d_6_18)">
<path d="M98 112H38C35.2386 112 33 109.761 33 107V21C33 18.2386 35.2386 16 38 16H68H83.178C84.6505 16 86.0481 16.6491 86.9981 17.7741L94.7647 26.9714L101.952 36.248C102.631 37.1244 103 38.2017 103 39.3104V59.2V107C103 109.761 100.761 112 98 112Z" fill="white"/>
</g>
<rect x="41" y="45" width="36" height="4" rx="2" fill="url(#paint0_linear_6_18)"/>
<rect x="41" y="54" width="47" height="4" rx="2" fill="url(#paint1_linear_6_18)"/>
<rect x="41" y="63" width="42" height="4" rx="2" fill="url(#paint2_linear_6_18)"/>
<rect x="41" y="72" width="36" height="4" rx="2" fill="url(#paint3_linear_6_18)"/>
<path d="M41.6055 41V33H44.9102C45.5091 33 46.026 33.1081 46.4609 33.3242C46.8984 33.5378 47.2357 33.8451 47.4727 34.2461C47.7096 34.6445 47.8281 35.1172 47.8281 35.6641C47.8281 36.2187 47.707 36.6901 47.4648 37.0781C47.2227 37.4635 46.8789 37.7578 46.4336 37.9609C45.9883 38.1615 45.4609 38.2617 44.8516 38.2617H42.7617V36.7383H44.4922C44.7839 36.7383 45.0273 36.7005 45.2227 36.625C45.4206 36.5469 45.5703 36.4297 45.6719 36.2734C45.7734 36.1146 45.8242 35.9115 45.8242 35.6641C45.8242 35.4167 45.7734 35.2122 45.6719 35.0508C45.5703 34.8867 45.4206 34.7643 45.2227 34.6836C45.0247 34.6003 44.7813 34.5586 44.4922 34.5586H43.5391V41H41.6055ZM46.1094 37.3437L48.1016 41H45.9922L44.0391 37.3437H46.1094ZM48.8887 41V33H54.4668V34.5703H50.8223V36.2109H54.1816V37.7852H50.8223V39.4297H54.4668V41H48.8887ZM57.4082 41H55.3301L58.0293 33H60.6035L63.3027 41H61.2246L59.3457 35.0156H59.2832L57.4082 41ZM57.1309 37.8516H61.4746V39.3203H57.1309V37.8516ZM67.1211 41H64.1641V33H67.1172C67.9323 33 68.6341 33.1602 69.2227 33.4805C69.8138 33.7982 70.2695 34.2565 70.5898 34.8555C70.9102 35.4518 71.0703 36.1654 71.0703 36.9961C71.0703 37.8294 70.9102 38.5456 70.5898 39.1445C70.2721 39.7435 69.8177 40.2031 69.2266 40.5234C68.6354 40.8411 67.9336 41 67.1211 41ZM66.0977 39.3516H67.0469C67.4948 39.3516 67.8737 39.276 68.1836 39.125C68.4961 38.9714 68.7318 38.7227 68.8906 38.3789C69.0521 38.0326 69.1328 37.5716 69.1328 36.9961C69.1328 36.4206 69.0521 35.9622 68.8906 35.6211C68.7292 35.2773 68.4909 35.0299 68.1758 34.8789C67.8633 34.7253 67.4779 34.6484 67.0195 34.6484H66.0977V39.3516ZM72.1992 33H74.5938L76.625 37.9531H76.7188L78.75 33H81.1445V41H79.2617V36.0859H79.1953L77.2734 40.9492H76.0703L74.1484 36.0586H74.082V41H72.1992V33ZM82.3506 41V33H87.9287V34.5703H84.2842V36.2109H87.6436V37.7852H84.2842V39.4297H87.9287V41H82.3506Z" fill="black"/>
<path d="M40.7188 92.6108V89.6562L51.0028 85.3381V88.5696L44.2131 91.1051L44.3196 90.9489V91.3253L44.2131 91.1619L51.0028 93.7045V96.929L40.7188 92.6108ZM60.5643 81.7727L55.8768 99.1875H52.9151L57.6026 81.7727H60.5643ZM72.7607 92.6108L62.4766 96.929V93.7045L69.2663 91.1619L69.1669 91.3253V90.9489L69.2663 91.1051L62.4766 88.5696V85.3381L72.7607 89.6562V92.6108Z" fill="black"/>
<path d="M89.186 94.5902L86.9 96.4634L86.8814 96.4786C85.6443 97.4918 85.0239 98 84.5015 98C84.2758 98.0002 84.053 97.9482 83.8496 97.8479C83.6463 97.7476 83.4676 97.6015 83.327 97.4207C83 97.0012 83 96.1821 83 94.5441V76.9173C83 75.1962 83 74.3357 83.327 73.678C83.6146 73.0998 84.0735 72.6296 84.638 72.335C85.28 72 86.12 72 87.8 72H105.2C106.88 72 107.72 72 108.361 72.335C108.926 72.6294 109.385 73.0995 109.673 73.678C110 74.3342 110 75.1947 110 76.9126V88.6019C110 90.3168 110 91.1773 109.673 91.835C109.385 92.4132 108.926 92.8834 108.362 93.178C107.722 93.513 106.882 93.513 105.205 93.513H92.183C91.559 93.513 91.2485 93.513 90.95 93.576C90.683 93.6323 90.429 93.7235 90.188 93.8495C89.9195 93.9894 89.678 94.1861 89.201 94.5779L89.186 94.5902Z" stroke="url(#paint4_linear_6_18)" stroke-width="2" stroke-linecap="round" stroke-linejoin="round"/>
<path d="M91.3977 88H88.375L92.3011 76.3636H96.0455L99.9716 88H96.9489L94.2159 79.2955H94.125L91.3977 88ZM90.9943 83.4205H97.3125V85.5568H90.9943V83.4205ZM104.037 76.3636V88H101.224V76.3636H104.037Z" fill="url(#paint5_linear_6_18)"/>
<defs>
<filter id="filter0_d_6_18" x="29" y="16" width="78" height="104" filterUnits="userSpaceOnUse" color-interpolation-filters="sRGB">
<feFlood flood-opacity="0" result="BackgroundImageFix"/>
<feColorMatrix in="SourceAlpha" type="matrix" values="0 0 0 0 0 0 0 0 0 0 0 0 0 0 0 0 0 0 127 0" result="hardAlpha"/>
<feOffset dy="4"/>
<feGaussianBlur stdDeviation="2"/>
<feComposite in2="hardAlpha" operator="out"/>
<feColorMatrix type="matrix" values="0 0 0 0 0 0 0 0 0 0 0 0 0 0 0 0 0 0 0.25 0"/>
<feBlend mode="normal" in2="BackgroundImageFix" result="effect1_dropShadow_6_18"/>
<feBlend mode="normal" in="SourceGraphic" in2="effect1_dropShadow_6_18" result="shape"/>
</filter>
<linearGradient id="paint0_linear_6_18" x1="41" y1="47" x2="77" y2="47" gradientUnits="userSpaceOnUse">
<stop stop-color="#13B5FB"/>
<stop offset="1" stop-color="#833AEF"/>
</linearGradient>
<linearGradient id="paint1_linear_6_18" x1="41" y1="56" x2="88" y2="56" gradientUnits="userSpaceOnUse">
<stop stop-color="#B3B3B3"/>
<stop offset="1" stop-color="#4C4C4C"/>
</linearGradient>
<linearGradient id="paint2_linear_6_18" x1="41" y1="65" x2="83" y2="65" gradientUnits="userSpaceOnUse">
<stop stop-color="#B3B3B3"/>
<stop offset="1" stop-color="#4C4C4C"/>
</linearGradient>
<linearGradient id="paint3_linear_6_18" x1="41" y1="74" x2="77" y2="74" gradientUnits="userSpaceOnUse">
<stop stop-color="#B3B3B3"/>
<stop offset="1" stop-color="#4C4C4C"/>
</linearGradient>
<linearGradient id="paint4_linear_6_18" x1="96.5" y1="72" x2="96.5" y2="98" gradientUnits="userSpaceOnUse">
<stop stop-color="#14B5FB"/>
<stop offset="1" stop-color="#833AEF"/>
</linearGradient>
<linearGradient id="paint5_linear_6_18" x1="96.5" y1="73" x2="96.5" y2="91" gradientUnits="userSpaceOnUse">
<stop stop-color="#15B3FB"/>
<stop offset="1" stop-color="#813CEF"/>
</linearGradient>
</defs>
</svg>
