<svg width="128" height="128" viewBox="0 0 128 128" fill="none" xmlns="http://www.w3.org/2000/svg">
  <defs>
    <linearGradient id="accent-gradient" x1="0%" y1="0%" x2="100%" y2="100%">
      <stop offset="0%" stop-color="#818cf8" />
      <stop offset="100%" stop-color="#c084fc" />
    </linearGradient>
    <filter id="glow" x="-20%" y="-20%" width="140%" height="140%">
      <feGaussianBlur stdDeviation="3" result="blur" />
      <feComposite in="SourceGraphic" in2="blur" operator="over" />
    </filter>
  </defs>

  <!-- Background Document Outline -->
  <path d="M36 20H76L100 44V104C100 108.418 96.4183 112 92 112H36C31.5817 112 28 108.418 28 104V28C28 23.5817 31.5817 20 36 20Z" stroke="url(#accent-gradient)" stroke-width="6" stroke-linecap="round" stroke-linejoin="round" />
  <path d="M76 20V44H100" stroke="url(#accent-gradient)" stroke-width="6" stroke-linecap="round" stroke-linejoin="round" />

  <!-- Code/Text lines inside document -->
  <rect x="42" y="56" width="38" height="6" rx="3" fill="#ffffff" fill-opacity="0.8" />
  <rect x="42" y="70" width="46" height="6" rx="3" fill="#ffffff" fill-opacity="0.8" />
  <rect x="42" y="84" width="30" height="6" rx="3" fill="#ffffff" fill-opacity="0.8" />

  <!-- Sparkles (AI indicator) -->
  <!-- Sparkle 1 (Large glowing sparkle on the bottom right) -->
  <path d="M94 68C94 74.6274 88.6274 80 82 80C88.6274 80 94 85.3726 94 92C94 85.3726 99.3726 80 106 80C99.3726 80 94 74.6274 94 68Z" fill="url(#accent-gradient)" filter="url(#glow)" />
  <!-- Sparkle 2 (Small sparkle on the top-left) -->
  <path d="M48 34C48 37.3137 45.3137 40 42 40C45.3137 40 48 42.6863 48 46C48 42.6863 50.6863 40 54 40C50.6863 40 48 37.3137 48 34Z" fill="url(#accent-gradient)" />
</svg>
